<?xml version="1.0" encoding="utf-8"?>
<!-- Generator: Adobe Illustrator 28.1.0, SVG Export Plug-In . SVG Version: 6.00 Build 0)  -->
<svg version="1.1" id="Layer_1" xmlns="http://www.w3.org/2000/svg" xmlns:xlink="http://www.w3.org/1999/xlink" x="0px" y="0px"
	 viewBox="0 0 780.47 831.14" style="enable-background:new 0 0 780.47 831.14;" xml:space="preserve">
<style type="text/css">
	.st0{fill:#346783;}
	.st1{fill:#3D857B;}
	.st2{fill:#133851;}
	.st3{fill:#FFFFFF;}
	.st4{fill:#FB8F00;}
	.st5{fill:#346786;}
	.st6{fill:#808285;}
	.st7{fill:#6D6E71;}
	.st8{fill:#003A58;}
	.st9{fill:#231F20;}
	.st10{fill:#8F9194;}
	.st11{fill:#FE9200;}
	.st12{fill:#7C7C7C;}
	.st13{fill:#01678A;}
	.st14{fill:#808082;}
	.st15{fill:#CDCFD0;}
	.st16{fill:#E3E4E5;}
</style>
<g>
	<ellipse class="st0" cx="389.7" cy="415.57" rx="381.6" ry="381.6"/>
	<polygon class="st1" points="677.05,552.73 771.34,796.78 528.4,701.38 	"/>
	<path class="st2" d="M771.34,415.17c0-58.8-13.31-114.26-36.61-163.07l-41.05-41.05l-302.85,86.53L87.99,211.05L117.94,241
		l1.11,1.11l0,0l12.2,12.2c-27.73,27.73-44.37,65.45-44.37,107.61c0,45.48,19.97,86.53,53.25,114.26l315.05,315.05
		c54.36-8.87,105.39-29.95,149.76-59.9l167.51,65.45L707,629.27C748.05,568.26,771.34,493.93,771.34,415.17z"/>
	<path class="st3" d="M692.58,209.94H86.88l44.37,44.37c-27.73,27.73-44.37,65.45-44.37,107.61c0,83.2,67.67,151.98,151.98,151.98
		c42.16,0,79.87-16.64,107.61-44.37l44.37,44.37l44.37-44.37c27.73,27.73,65.45,44.37,107.61,44.37
		c83.2,0,151.98-67.67,151.98-151.98c0-42.16-16.64-79.87-44.37-107.61L692.58,209.94z"/>
	<path class="st0" d="M238.86,402.97c-22.19,0-41.05-17.75-41.05-41.05s17.75-41.05,41.05-41.05c22.19,0,41.05,17.75,41.05,41.05
		S261.05,402.97,238.86,402.97z"/>
	<path class="st0" d="M541.71,402.97c-22.19,0-41.05-17.75-41.05-41.05s17.75-41.05,41.05-41.05c22.19,0,41.05,17.75,41.05,41.05
		S563.9,402.97,541.71,402.97z"/>
</g>
</svg>
